<svg width="256" height="256" viewBox="0 0 256 256" xmlns="http://www.w3.org/2000/svg">
  <defs>
    <filter id="shadow" x="-20%" y="-10%" width="140%" height="130%">
      <feDropShadow dx="0" dy="3" stdDeviation="4" flood-color="#000" flood-opacity="0.25"/>
    </filter>
  </defs>
  <path d="M74 118 Q66 80 80 58 Q88 48 98 54 Q106 58 110 82 L110 118Z" fill="#f5b878"/>
  <path d="M182 118 Q190 80 176 58 Q168 48 158 54 Q150 58 146 82 L146 118Z" fill="#f5b878"/>
  <path d="M80 110 Q76 82 86 66 Q92 58 96 62 Q100 66 102 84" fill="#f0a0a0" opacity="0.45"/>
  <path d="M176 110 Q180 82 170 66 Q164 58 160 62 Q156 66 154 84" fill="#f0a0a0" opacity="0.45"/>
  <circle cx="128" cy="132" r="58" fill="#f5b878" filter="url(#shadow)"/>
  <circle cx="104" cy="128" r="10.5" fill="#1a0804"/>
  <circle cx="152" cy="128" r="10.5" fill="#1a0804"/>
  <circle cx="101" cy="123" r="4.2" fill="white"/>
  <circle cx="149" cy="123" r="4.2" fill="white"/>
  <circle cx="86" cy="144" r="9" fill="#ffb0a0" opacity="0.45"/>
  <circle cx="170" cy="144" r="9" fill="#ffb0a0" opacity="0.45"/>
  <ellipse cx="128" cy="150" rx="5" ry="3.5" fill="#e09080"/>
  <line x1="128" y1="153.5" x2="128" y2="160" stroke="#d4a080" stroke-width="2" stroke-linecap="round"/>
  <path d="M128 160 Q120 156 114 162" fill="none" stroke="#d4a080" stroke-width="2" stroke-linecap="round"/>
  <path d="M128 160 Q136 156 142 162" fill="none" stroke="#d4a080" stroke-width="2" stroke-linecap="round"/>
  <line x1="78" y1="142" x2="52" y2="136" stroke="#e8b898" stroke-width="1.8" stroke-linecap="round"/>
  <line x1="78" y1="148" x2="50" y2="150" stroke="#e8b898" stroke-width="1.8" stroke-linecap="round"/>
  <line x1="178" y1="142" x2="204" y2="136" stroke="#e8b898" stroke-width="1.8" stroke-linecap="round"/>
  <line x1="178" y1="148" x2="206" y2="150" stroke="#e8b898" stroke-width="1.8" stroke-linecap="round"/>
</svg>
